<?xml version="1.0" standalone="no"?><!DOCTYPE svg PUBLIC "-//W3C//DTD SVG 1.1//EN" "http://www.w3.org/Graphics/SVG/1.1/DTD/svg11.dtd"><svg t="1588296475555" class="icon" viewBox="0 0 1024 1024" version="1.1" xmlns="http://www.w3.org/2000/svg" p-id="1809" xmlns:xlink="http://www.w3.org/1999/xlink" width="200" height="200"><defs><style type="text/css"></style></defs><path d="M611.5 484.005V314.527c0-12.22-9.908-22.125-22.125-22.125-12.22 0-22.125 9.905-22.125 22.125v169.477c0 12.217 9.905 22.125 22.125 22.125 12.217 0.001 22.125-9.907 22.125-22.124M478.75 484.005V314.527c0-12.22-9.908-22.125-22.125-22.125-12.22 0-22.125 9.905-22.125 22.125v169.477c0 12.217 9.905 22.125 22.125 22.125 12.217 0.001 22.125-9.907 22.125-22.124M235.375 638.88h575.25c12.217 0 22.125-9.908 22.125-22.125 0-12.22-9.908-22.125-22.125-22.125h-575.25c-12.22 0-22.125 9.905-22.125 22.125 0 12.217 9.905 22.125 22.125 22.125" fill="#ffffff" p-id="1810"></path><path d="M832.75 598.727v-4.1c-0.047-140.492-93.637-259.161-222.224-297.103-4.688-32.112-31.995-56.819-65.401-56.897h-44.25c-33.409 0.077-60.715 24.784-65.404 56.897-128.586 37.943-222.177 156.612-222.221 297.104v4.1c-25.698 9.166-44.186 33.424-44.25 62.275 0.082 36.654 29.718 66.293 66.375 66.375h575.25c36.654-0.082 66.291-29.721 66.373-66.375-0.065-28.851-18.552-53.109-44.248-62.276z m-22.125 84.401h-575.25c-12.025-0.022-22.103-10.1-22.127-22.125 0.024-12.025 10.102-22.103 22.127-22.125a22.267 22.267 0 0 0 15.642-6.48c4.12-4.12 6.483-9.819 6.483-15.645v-22.125c-0.048-125.391 87.066-230.808 204.227-258.577 9.945-2.359 17.021-11.308 17.021-21.528v-7.52c0.024-12.025 10.102-22.103 22.127-22.125h44.25c12.023 0.022 22.101 10.1 22.125 22.125v7.52c0 10.222 7.073 19.169 17.021 21.528C701.431 363.82 788.546 469.234 788.5 594.628v22.125a22.276 22.276 0 0 0 6.48 15.645 22.268 22.268 0 0 0 15.645 6.48c12.023 0.022 22.101 10.1 22.125 22.125-0.025 12.025-10.103 22.103-22.125 22.125z" fill="#ffffff" p-id="1811"></path></svg>